# xmcd CD database file
#
# Track frame offsets:
#	150
#	20137
#	33920
#	49675
#	62327
#	76275
#	95532
#	123087
#	144250
#	163892
#	179475
#	192890
#	208632
#	221367
#	233387
#
# Disc length: 3418 seconds
#
# Revision: 0
# Processed by: cddbd v1.5.2PL0 Copyright (c) Steve Scherf et al.
# Submitted via: CDex 1.70beta2
#
DISCID=c10d580f
DTITLE=Ella Fitzgerald and Joe Pass - Easy Living
DYEAR=1900
DGENRE=Jazz
TTITLE0=My Ship
TTITLE1=Don't Be That Way
TTITLE2=My Man
TTITLE3=Don't Worry About Me
TTITLE4=Days Of Wine And Roses
TTITLE5=Easy Living
TTITLE6=I Don't Stand A Ghost Of A Chance
TTITLE7=Love For Sale
TTITLE8=Moonlight In Vermont
TTITLE9=Green Dolphin Street
TTITLE10=Why Don't You Do Right?
TTITLE11=By Myself
TTITLE12=I Wan't A Little Girl
TTITLE13=I'm Making Believe
TTITLE14=Slow Boat To China
EXTD=
EXTT0=
EXTT1=
EXTT2=
EXTT3=
EXTT4=
EXTT5=
EXTT6=
EXTT7=
EXTT8=
EXTT9=
EXTT10=
EXTT11=
EXTT12=
EXTT13=
EXTT14=
PLAYORDER=
